<?xml version="1.0" encoding="utf-8"?>
<!-- Generator: Adobe Illustrator 25.0.1, SVG Export Plug-In . SVG Version: 6.00 Build 0)  -->
<svg version="1.1" xmlns="http://www.w3.org/2000/svg" xmlns:xlink="http://www.w3.org/1999/xlink" x="0px" y="0px"
	 viewBox="0 0 200 200" style="enable-background:new 0 0 200 200;" xml:space="preserve">
<style type="text/css">
	.st0{fill:#FFFFFF;}
	.st1{fill:none;}
	.st2{font-family:'HGKyokashotai';}
	.st3{font-size:24px;}
</style>
<g id="レイヤー_2">
</g>
<g id="レイヤー_3">
</g>
<g id="レイヤー_4">
</g>
<g id="レイヤー_5">
	<g>
		<path class="st0" d="M19.65,53.04C16.41,39,17.58,39.36,18.21,38.28c0.63-1.08,7.92,9.36,12.24,10.8
			c4.32,1.44,12.96,7.56,15.48,10.08c2.52,2.52,5.76,15.12,9,15.84c3.24,0.72,7.56,6.12,11.88,10.08
			c4.32,3.96,34.92,5.4,45.72,27.36c10.8,21.96,5.4,45.72,10.8,48.6c5.4,2.88,28.55,6.08,42.84,0.36c5.4-2.16,7.97-5.86,12.24-11.16
			c4.35-5.39,12.96-26.28,4.32-26.64s-11.52,3.24-14.04,5.4c-2.52,2.16-7.2,3.6-8.28,0.72c-1.08-2.88,0-8.64,5.4-11.16
			c5.4-2.52,15.48-7.56,21.6-4.68s5.4,3.96,6.48,13.32c1.08,9.36-2.52,16.92-7.2,25.56c-4.68,8.64-12.6,16.92-22.68,19.44
			c-10.08,2.52-38.52,1.44-43.2,3.24c-4.68,1.8-12.32,0.81-21.32,0.36s-24.04,0.72-28.36,0.72s-9.72-0.09-11.34-0.63
			c-4.11-1.37-2.7-5.04-0.81-6.66c3.34-2.86,9-0.54,11.88-4.23c3.45-4.41,1.71-4.32-2.25-8.28c-3.96-3.96-7.92-14.04-8.64-18.72
			c-0.72-4.68-17.28,37.8-20.52,38.88s-14.04,4.68-14.4,0c-0.36-4.68,4.68-7.56,6.12-9s2.88-0.72,5.04-5.76
			c2.16-5.04,9-28.8,7.2-35.28c-1.8-6.48-13.68-7.2-14.76-15.12c-1.08-7.92-1.44-13.68-0.72-17.28c0.72-3.6-0.36-8.64-2.16-9.36
			c-1.8-0.72-9.36,4.32-12.6,1.44s-7.83-6.57-7.2-8.64c0.63-2.07,1.8-1.35,2.88-4.95c1.08-3.6,0-6.93,2.16-10.17
			C13.17,59.52,19.65,53.04,19.65,53.04z"/>
		<rect x="4.36" y="100" class="st1" width="260.64" height="94.32"/>
		<text transform="matrix(1 0 0 1 4.3608 120.6253)" class="st2 st3">FUKUOKA CAT CAFE</text>
	</g>
</g>
</svg>
